<svg xmlns="http://www.w3.org/2000/svg" xmlns:xlink="http://www.w3.org/1999/xlink" width="1080" zoomAndPan="magnify" viewBox="0 0 810 1439.999935" height="1920" preserveAspectRatio="xMidYMid meet" version="1.0"><defs><clipPath id="b4ceba4684"><path d="M 111.765625 367.429688 L 698.265625 367.429688 L 698.265625 953.929688 L 111.765625 953.929688 Z M 111.765625 367.429688 " clip-rule="nonzero"/></clipPath><clipPath id="d6d477aab2"><path d="M 111.015625 660.664062 C 111.015625 738.636719 141.988281 813.410156 197.121094 868.546875 C 252.253906 923.679688 327.03125 954.652344 405 954.652344 C 482.96875 954.652344 557.746094 923.679688 612.878906 868.546875 C 668.011719 813.410156 698.984375 738.636719 698.984375 660.664062 C 698.984375 582.695312 668.011719 507.917969 612.878906 452.785156 C 557.746094 397.652344 482.96875 366.679688 405 366.679688 C 327.03125 366.679688 252.253906 397.652344 197.121094 452.785156 C 141.988281 507.917969 111.015625 582.695312 111.015625 660.664062 Z M 111.015625 660.664062 " clip-rule="nonzero"/></clipPath><clipPath id="aca00dc3f1"><path d="M 405 367.582031 C 482.730469 367.582031 557.277344 398.457031 612.242188 453.421875 C 667.207031 508.386719 698.085938 582.933594 698.085938 660.664062 C 698.085938 738.398438 667.207031 812.945312 612.242188 867.910156 C 557.277344 922.871094 482.730469 953.75 405 953.75 C 327.269531 953.75 252.722656 922.871094 197.757812 867.910156 C 142.792969 812.945312 111.914062 738.398438 111.914062 660.664062 C 111.914062 582.933594 142.792969 508.386719 197.757812 453.421875 C 252.722656 398.457031 327.269531 367.582031 405 367.582031 Z M 405 367.582031 " clip-rule="nonzero"/></clipPath><clipPath id="3d3f6283a6"><path d="M 323 547 L 509 547 L 509 774 L 323 774 Z M 323 547 " clip-rule="nonzero"/></clipPath><clipPath id="f24ba818e9"><path d="M 111.015625 660.664062 C 111.015625 738.636719 141.988281 813.410156 197.121094 868.546875 C 252.253906 923.679688 327.03125 954.652344 405 954.652344 C 482.96875 954.652344 557.746094 923.679688 612.878906 868.546875 C 668.011719 813.410156 698.984375 738.636719 698.984375 660.664062 C 698.984375 582.695312 668.011719 507.917969 612.878906 452.785156 C 557.746094 397.652344 482.96875 366.679688 405 366.679688 C 327.03125 366.679688 252.253906 397.652344 197.121094 452.785156 C 141.988281 507.917969 111.015625 582.695312 111.015625 660.664062 Z M 111.015625 660.664062 " clip-rule="nonzero"/></clipPath><clipPath id="1a35fb4163"><path d="M 405 367.582031 C 482.730469 367.582031 557.277344 398.457031 612.242188 453.421875 C 667.207031 508.386719 698.085938 582.933594 698.085938 660.664062 C 698.085938 738.398438 667.207031 812.945312 612.242188 867.910156 C 557.277344 922.871094 482.730469 953.75 405 953.75 C 327.269531 953.75 252.722656 922.871094 197.757812 867.910156 C 142.792969 812.945312 111.914062 738.398438 111.914062 660.664062 C 111.914062 582.933594 142.792969 508.386719 197.757812 453.421875 C 252.722656 398.457031 327.269531 367.582031 405 367.582031 Z M 405 367.582031 " clip-rule="nonzero"/></clipPath><clipPath id="642b2ec4cf"><path d="M 111.015625 366.679688 L 699 366.679688 L 699 954.675781 L 111.015625 954.675781 Z M 111.015625 366.679688 " clip-rule="nonzero"/></clipPath><clipPath id="4cd81ef3b3"><path d="M 111.015625 660.664062 C 111.015625 738.636719 141.988281 813.410156 197.121094 868.546875 C 252.253906 923.679688 327.03125 954.652344 405 954.652344 C 482.96875 954.652344 557.746094 923.679688 612.878906 868.546875 C 668.011719 813.410156 698.984375 738.636719 698.984375 660.664062 C 698.984375 582.695312 668.011719 507.917969 612.878906 452.785156 C 557.746094 397.652344 482.96875 366.679688 405 366.679688 C 327.03125 366.679688 252.253906 397.652344 197.121094 452.785156 C 141.988281 507.917969 111.015625 582.695312 111.015625 660.664062 Z M 111.015625 660.664062 " clip-rule="nonzero"/></clipPath><clipPath id="6b767b07e9"><path d="M 111.015625 660.664062 C 111.015625 738.632812 141.988281 813.40625 197.121094 868.539062 C 252.253906 923.671875 327.027344 954.644531 404.996094 954.644531 C 482.964844 954.644531 557.742188 923.671875 612.875 868.539062 C 668.007812 813.40625 698.980469 738.632812 698.980469 660.664062 C 698.980469 582.695312 668.007812 507.917969 612.875 452.785156 C 557.742188 397.652344 482.964844 366.679688 404.996094 366.679688 C 327.027344 366.679688 252.253906 397.652344 197.121094 452.785156 C 141.988281 507.917969 111.015625 582.695312 111.015625 660.664062 Z M 111.015625 660.664062 " clip-rule="nonzero"/></clipPath><clipPath id="2e1c8fa92b"><path d="M 219 549.242188 L 551 549.242188 L 551 853 L 219 853 Z M 219 549.242188 " clip-rule="nonzero"/></clipPath></defs><g clip-path="url(#b4ceba4684)"><g clip-path="url(#d6d477aab2)"><g clip-path="url(#aca00dc3f1)"><path fill="#00aeef" d="M 698.960938 660.664062 C 698.960938 665.472656 698.84375 670.28125 698.605469 675.085938 C 698.371094 679.890625 698.015625 684.6875 697.546875 689.476562 C 697.074219 694.265625 696.484375 699.039062 695.777344 703.796875 C 695.074219 708.554688 694.25 713.292969 693.3125 718.011719 C 692.375 722.730469 691.320312 727.421875 690.152344 732.089844 C 688.980469 736.757812 687.699219 741.390625 686.300781 745.996094 C 684.90625 750.601562 683.398438 755.167969 681.777344 759.695312 C 680.15625 764.226562 678.425781 768.714844 676.582031 773.15625 C 674.742188 777.601562 672.792969 782 670.738281 786.347656 C 668.679688 790.699219 666.515625 794.992188 664.25 799.234375 C 661.980469 803.480469 659.609375 807.664062 657.136719 811.789062 C 654.664062 815.917969 652.089844 819.980469 649.417969 823.980469 C 646.746094 827.980469 643.976562 831.914062 641.109375 835.777344 C 638.246094 839.640625 635.285156 843.433594 632.234375 847.152344 C 629.183594 850.871094 626.039062 854.511719 622.808594 858.078125 C 619.578125 861.640625 616.261719 865.125 612.859375 868.527344 C 609.457031 871.929688 605.976562 875.246094 602.410156 878.476562 C 598.847656 881.707031 595.203125 884.847656 591.484375 887.898438 C 587.765625 890.953125 583.976562 893.910156 580.109375 896.777344 C 576.246094 899.640625 572.3125 902.410156 568.3125 905.085938 C 564.3125 907.757812 560.25 910.332031 556.125 912.804688 C 551.996094 915.277344 547.8125 917.648438 543.570312 919.914062 C 539.328125 922.183594 535.03125 924.347656 530.683594 926.402344 C 526.332031 928.460938 521.9375 930.410156 517.492188 932.25 C 513.046875 934.089844 508.558594 935.820312 504.03125 937.441406 C 499.5 939.0625 494.933594 940.570312 490.328125 941.96875 C 485.726562 943.363281 481.089844 944.648438 476.425781 945.816406 C 471.757812 946.984375 467.066406 948.039062 462.347656 948.976562 C 457.628906 949.917969 452.890625 950.738281 448.128906 951.445312 C 443.371094 952.152344 438.597656 952.738281 433.808594 953.210938 C 429.023438 953.683594 424.226562 954.035156 419.421875 954.273438 C 414.617188 954.507812 409.808594 954.625 404.996094 954.625 C 400.1875 954.625 395.378906 954.507812 390.574219 954.273438 C 385.765625 954.035156 380.972656 953.683594 376.183594 953.210938 C 371.394531 952.738281 366.621094 952.152344 361.863281 951.445312 C 357.105469 950.738281 352.367188 949.917969 347.648438 948.976562 C 342.929688 948.039062 338.234375 946.984375 333.570312 945.816406 C 328.902344 944.648438 324.265625 943.363281 319.664062 941.96875 C 315.058594 940.570312 310.492188 939.0625 305.964844 937.441406 C 301.433594 935.820312 296.945312 934.089844 292.5 932.25 C 288.058594 930.410156 283.660156 928.460938 279.3125 926.402344 C 274.960938 924.347656 270.667969 922.183594 266.421875 919.914062 C 262.179688 917.648438 257.996094 915.277344 253.871094 912.804688 C 249.742188 910.332031 245.679688 907.757812 241.679688 905.085938 C 237.679688 902.410156 233.746094 899.640625 229.882812 896.777344 C 226.019531 893.910156 222.226562 890.953125 218.507812 887.898438 C 214.789062 884.847656 211.148438 881.707031 207.582031 878.476562 C 204.019531 875.246094 200.535156 871.929688 197.132812 868.527344 C 193.730469 865.125 190.414062 861.640625 187.183594 858.078125 C 183.953125 854.511719 180.8125 850.871094 177.757812 847.152344 C 174.707031 843.433594 171.75 839.640625 168.882812 835.777344 C 166.015625 831.914062 163.246094 827.980469 160.574219 823.980469 C 157.902344 819.980469 155.328125 815.917969 152.855469 811.789062 C 150.382812 807.664062 148.011719 803.480469 145.742188 799.234375 C 143.476562 794.992188 141.3125 790.699219 139.257812 786.347656 C 137.199219 782 135.25 777.601562 133.410156 773.15625 C 131.570312 768.714844 129.835938 764.226562 128.21875 759.695312 C 126.597656 755.167969 125.085938 750.601562 123.691406 745.996094 C 122.292969 741.390625 121.011719 736.757812 119.84375 732.089844 C 118.671875 727.421875 117.621094 722.730469 116.679688 718.011719 C 115.742188 713.292969 114.921875 708.554688 114.214844 703.796875 C 113.507812 699.039062 112.921875 694.265625 112.449219 689.476562 C 111.976562 684.6875 111.625 679.890625 111.386719 675.085938 C 111.152344 670.28125 111.03125 665.472656 111.03125 660.664062 C 111.03125 655.851562 111.152344 651.042969 111.386719 646.238281 C 111.625 641.433594 111.976562 636.636719 112.449219 631.847656 C 112.921875 627.0625 113.507812 622.289062 114.214844 617.527344 C 114.921875 612.769531 115.742188 608.03125 116.679688 603.3125 C 117.621094 598.59375 118.671875 593.902344 119.84375 589.234375 C 121.011719 584.570312 122.292969 579.933594 123.691406 575.328125 C 125.085938 570.726562 126.597656 566.160156 128.21875 561.628906 C 129.835938 557.097656 131.570312 552.613281 133.410156 548.167969 C 135.25 543.722656 137.199219 539.324219 139.257812 534.976562 C 141.3125 530.628906 143.476562 526.332031 145.742188 522.089844 C 148.011719 517.847656 150.382812 513.660156 152.855469 509.535156 C 155.328125 505.410156 157.902344 501.34375 160.574219 497.34375 C 163.246094 493.34375 166.015625 489.414062 168.882812 485.546875 C 171.75 481.683594 174.707031 477.894531 177.757812 474.175781 C 180.8125 470.457031 183.953125 466.8125 187.183594 463.25 C 190.414062 459.683594 193.730469 456.199219 197.132812 452.800781 C 200.535156 449.398438 204.019531 446.082031 207.582031 442.851562 C 211.148438 439.617188 214.789062 436.476562 218.507812 433.425781 C 222.226562 430.375 226.019531 427.414062 229.882812 424.546875 C 233.746094 421.683594 237.679688 418.914062 241.679688 416.242188 C 245.679688 413.566406 249.742188 410.996094 253.871094 408.523438 C 257.996094 406.046875 262.179688 403.675781 266.421875 401.410156 C 270.667969 399.140625 274.960938 396.980469 279.3125 394.921875 C 283.660156 392.867188 288.058594 390.917969 292.5 389.074219 C 296.945312 387.234375 301.433594 385.503906 305.964844 383.882812 C 310.492188 382.261719 315.058594 380.753906 319.664062 379.355469 C 324.265625 377.960938 328.902344 376.675781 333.570312 375.507812 C 338.234375 374.339844 342.929688 373.285156 347.648438 372.347656 C 352.367188 371.410156 357.105469 370.585938 361.863281 369.878906 C 366.621094 369.175781 371.394531 368.585938 376.183594 368.113281 C 380.972656 367.644531 385.765625 367.289062 390.574219 367.054688 C 395.378906 366.816406 400.1875 366.699219 404.996094 366.699219 C 409.808594 366.699219 414.617188 366.816406 419.421875 367.054688 C 424.226562 367.289062 429.023438 367.644531 433.808594 368.113281 C 438.597656 368.585938 443.371094 369.175781 448.128906 369.878906 C 452.890625 370.585938 457.628906 371.410156 462.347656 372.347656 C 467.066406 373.285156 471.757812 374.339844 476.425781 375.507812 C 481.089844 376.675781 485.726562 377.960938 490.328125 379.355469 C 494.933594 380.753906 499.5 382.261719 504.03125 383.882812 C 508.558594 385.503906 513.046875 387.234375 517.492188 389.074219 C 521.9375 390.917969 526.332031 392.867188 530.683594 394.921875 C 535.03125 396.980469 539.328125 399.140625 543.570312 401.410156 C 547.8125 403.675781 551.996094 406.046875 556.125 408.523438 C 560.25 410.996094 564.3125 413.566406 568.3125 416.242188 C 572.3125 418.914062 576.246094 421.683594 580.109375 424.546875 C 583.976562 427.414062 587.765625 430.375 591.484375 433.425781 C 595.203125 436.476562 598.847656 439.617188 602.410156 442.851562 C 605.976562 446.082031 609.457031 449.398438 612.859375 452.800781 C 616.261719 456.199219 619.578125 459.683594 622.808594 463.25 C 626.039062 466.8125 629.183594 470.457031 632.234375 474.175781 C 635.285156 477.894531 638.246094 481.683594 641.109375 485.546875 C 643.976562 489.414062 646.746094 493.34375 649.417969 497.34375 C 652.089844 501.34375 654.664062 505.410156 657.136719 509.535156 C 659.609375 513.660156 661.980469 517.847656 664.25 522.089844 C 666.515625 526.332031 668.679688 530.628906 670.738281 534.976562 C 672.792969 539.324219 674.742188 543.722656 676.582031 548.167969 C 678.425781 552.613281 680.15625 557.097656 681.777344 561.628906 C 683.398438 566.160156 684.90625 570.726562 686.300781 575.328125 C 687.699219 579.933594 688.980469 584.570312 690.152344 589.234375 C 691.320312 593.902344 692.375 598.59375 693.3125 603.3125 C 694.25 608.03125 695.074219 612.769531 695.777344 617.527344 C 696.484375 622.289062 697.074219 627.0625 697.546875 631.847656 C 698.015625 636.636719 698.371094 641.433594 698.605469 646.238281 C 698.84375 651.042969 698.960938 655.851562 698.960938 660.664062 Z M 698.960938 660.664062 " fill-opacity="1" fill-rule="nonzero"/></g></g></g><g clip-path="url(#3d3f6283a6)"><g clip-path="url(#f24ba818e9)"><g clip-path="url(#1a35fb4163)"><path fill="#00aeef" d="M 323.960938 560.714844 L 323.960938 760.609375 C 323.960938 770.78125 335.171875 776.972656 343.78125 771.5625 L 502.785156 671.613281 C 510.855469 666.539062 510.855469 654.785156 502.785156 649.710938 L 343.78125 549.765625 C 335.171875 544.351562 323.960938 550.542969 323.960938 560.714844 Z M 323.960938 560.714844 " fill-opacity="1" fill-rule="nonzero"/></g></g></g><g clip-path="url(#642b2ec4cf)"><g clip-path="url(#4cd81ef3b3)"><g clip-path="url(#6b767b07e9)"><path stroke-linecap="butt" transform="matrix(0.75, 0, 0, 0.75, 111.014416, 366.68031)" fill="none" stroke-linejoin="miter" d="M 0.00161221 391.978371 C 0.00161221 495.936713 41.298491 595.634639 114.808914 669.145062 C 188.319337 742.655485 288.017262 783.952363 391.975605 783.952363 C 495.933947 783.952363 595.637081 742.655485 669.147504 669.145062 C 742.657927 595.634639 783.954805 495.936713 783.954805 391.978371 C 783.954805 288.020029 742.657927 188.316895 669.147504 114.806472 C 595.637081 41.296049 495.933947 -0.000829694 391.975605 -0.000829694 C 288.017262 -0.000829694 188.319337 41.296049 114.808914 114.806472 C 41.298491 188.316895 0.00161221 288.020029 0.00161221 391.978371 Z M 0.00161221 391.978371 " stroke="#000000" stroke-width="22" stroke-opacity="1" stroke-miterlimit="4"/></g></g></g><g clip-path="url(#2e1c8fa92b)"><path fill="#ffffff" d="M 387.925781 796.628906 L 383.699219 677.007812 L 501.996094 602.148438 Z M 268.089844 574.695312 L 494.988281 577.09375 L 371.160156 655.464844 Z M 549.089844 559.117188 C 546.832031 555.292969 542.699219 552.894531 538.234375 552.847656 L 533.53125 552.800781 L 533.484375 552.726562 L 533.367188 552.800781 L 231.824219 549.617188 C 226.457031 549.570312 221.707031 552.847656 219.949219 557.808594 C 218.191406 562.75 219.832031 568.308594 224.035156 571.585938 L 358.597656 677.007812 L 364.34375 840.566406 C 364.535156 846.074219 368.429688 850.824219 373.890625 852.203125 C 373.890625 852.203125 373.914062 852.203125 373.914062 852.226562 C 379.355469 853.582031 385.007812 851.253906 387.808594 846.503906 L 549.113281 571.441406 C 551.34375 567.640625 551.34375 562.941406 549.089844 559.117188 " fill-opacity="1" fill-rule="nonzero"/></g></svg>