<svg xmlns="http://www.w3.org/2000/svg" xmlns:xlink="http://www.w3.org/1999/xlink" width="1080" zoomAndPan="magnify" viewBox="0 0 810 1439.999935" height="1920" preserveAspectRatio="xMidYMid meet" version="1.0"><defs><clipPath id="7bfa28bc64"><path d="M 81.75 436.132812 L 649.5 436.132812 L 649.5 1003.882812 L 81.75 1003.882812 Z M 81.75 436.132812 " clip-rule="nonzero"/></clipPath><clipPath id="9a7d3b6b8d"><path d="M 81 720 C 81 795.484375 110.988281 867.878906 164.363281 921.253906 C 217.738281 974.632812 290.132812 1004.617188 365.617188 1004.617188 C 441.105469 1004.617188 513.496094 974.632812 566.875 921.253906 C 620.25 867.878906 650.234375 795.484375 650.234375 720 C 650.234375 644.515625 620.25 572.121094 566.875 518.746094 C 513.496094 465.367188 441.105469 435.382812 365.617188 435.382812 C 290.132812 435.382812 217.738281 465.367188 164.363281 518.746094 C 110.988281 572.121094 81 644.515625 81 720 Z M 81 720 " clip-rule="nonzero"/></clipPath><clipPath id="9f13d8698c"><path d="M 365.617188 436.28125 C 440.863281 436.28125 513.03125 466.171875 566.238281 519.382812 C 619.445312 572.589844 649.335938 644.753906 649.335938 720 C 649.335938 795.246094 619.445312 867.410156 566.238281 920.617188 C 513.03125 973.828125 440.863281 1003.71875 365.617188 1003.71875 C 290.371094 1003.71875 218.207031 973.828125 165 920.617188 C 111.792969 867.410156 81.898438 795.246094 81.898438 720 C 81.898438 644.753906 111.792969 572.589844 165 519.382812 C 218.207031 466.171875 290.371094 436.28125 365.617188 436.28125 Z M 365.617188 436.28125 " clip-rule="nonzero"/></clipPath><clipPath id="45f63c0cd6"><path d="M 81 435.382812 L 650.242188 435.382812 L 650.242188 1004.621094 L 81 1004.621094 Z M 81 435.382812 " clip-rule="nonzero"/></clipPath><clipPath id="e47b01876c"><path d="M 81 720 C 81 795.484375 110.988281 867.878906 164.363281 921.253906 C 217.738281 974.632812 290.132812 1004.617188 365.617188 1004.617188 C 441.105469 1004.617188 513.496094 974.632812 566.875 921.253906 C 620.25 867.878906 650.234375 795.484375 650.234375 720 C 650.234375 644.515625 620.25 572.121094 566.875 518.746094 C 513.496094 465.367188 441.105469 435.382812 365.617188 435.382812 C 290.132812 435.382812 217.738281 465.367188 164.363281 518.746094 C 110.988281 572.121094 81 644.515625 81 720 Z M 81 720 " clip-rule="nonzero"/></clipPath><clipPath id="8cdad42e0c"><path d="M 81 719.996094 C 81 795.480469 110.984375 867.871094 164.359375 921.246094 C 217.738281 974.621094 290.128906 1004.609375 365.613281 1004.609375 C 441.097656 1004.609375 513.488281 974.621094 566.863281 921.246094 C 620.242188 867.871094 650.226562 795.480469 650.226562 719.996094 C 650.226562 644.511719 620.242188 572.117188 566.863281 518.742188 C 513.488281 465.367188 441.097656 435.382812 365.613281 435.382812 C 290.128906 435.382812 217.738281 465.367188 164.359375 518.742188 C 110.984375 572.117188 81 644.511719 81 719.996094 Z M 81 719.996094 " clip-rule="nonzero"/></clipPath></defs><g clip-path="url(#7bfa28bc64)"><g clip-path="url(#9a7d3b6b8d)"><g clip-path="url(#9f13d8698c)"><path fill="#00aeef" d="M 650.226562 719.988281 C 650.226562 724.644531 650.113281 729.300781 649.882812 733.953125 C 649.65625 738.605469 649.3125 743.25 648.855469 747.886719 C 648.398438 752.523438 647.828125 757.144531 647.144531 761.75 C 646.460938 766.359375 645.667969 770.945312 644.757812 775.515625 C 643.847656 780.085938 642.828125 784.628906 641.695312 789.148438 C 640.566406 793.664062 639.324219 798.152344 637.96875 802.609375 C 636.617188 807.070312 635.15625 811.488281 633.589844 815.875 C 632.019531 820.261719 630.34375 824.605469 628.558594 828.910156 C 626.777344 833.214844 624.890625 837.472656 622.898438 841.683594 C 620.90625 845.894531 618.8125 850.050781 616.617188 854.160156 C 614.421875 858.269531 612.125 862.320312 609.730469 866.316406 C 607.335938 870.3125 604.847656 874.246094 602.257812 878.117188 C 599.671875 881.992188 596.988281 885.800781 594.214844 889.539062 C 591.4375 893.28125 588.574219 896.953125 585.617188 900.554688 C 582.664062 904.15625 579.621094 907.679688 576.492188 911.132812 C 573.367188 914.582031 570.15625 917.957031 566.859375 921.25 C 563.566406 924.542969 560.195312 927.753906 556.742188 930.882812 C 553.292969 934.011719 549.765625 937.054688 546.164062 940.007812 C 542.5625 942.964844 538.890625 945.828125 535.152344 948.601562 C 531.410156 951.378906 527.601562 954.058594 523.730469 956.648438 C 519.855469 959.234375 515.921875 961.726562 511.925781 964.121094 C 507.929688 966.515625 503.878906 968.8125 499.769531 971.007812 C 495.664062 973.203125 491.503906 975.296875 487.292969 977.289062 C 483.082031 979.28125 478.824219 981.167969 474.519531 982.949219 C 470.21875 984.730469 465.871094 986.410156 461.488281 987.976562 C 457.101562 989.546875 452.679688 991.007812 448.222656 992.359375 C 443.765625 993.710938 439.277344 994.953125 434.757812 996.085938 C 430.238281 997.21875 425.695312 998.238281 421.125 999.148438 C 416.558594 1000.054688 411.96875 1000.851562 407.363281 1001.535156 C 402.753906 1002.21875 398.132812 1002.789062 393.496094 1003.246094 C 388.859375 1003.703125 384.21875 1004.042969 379.5625 1004.273438 C 374.910156 1004.5 370.257812 1004.617188 365.597656 1004.617188 C 360.941406 1004.617188 356.285156 1004.5 351.632812 1004.273438 C 346.980469 1004.042969 342.335938 1003.703125 337.699219 1003.246094 C 333.0625 1002.789062 328.441406 1002.21875 323.835938 1001.535156 C 319.226562 1000.851562 314.640625 1000.054688 310.070312 999.148438 C 305.5 998.238281 300.957031 997.21875 296.4375 996.085938 C 291.921875 994.953125 287.433594 993.710938 282.976562 992.359375 C 278.515625 991.007812 274.097656 989.546875 269.710938 987.976562 C 265.324219 986.410156 260.980469 984.730469 256.675781 982.949219 C 252.371094 981.167969 248.113281 979.28125 243.902344 977.289062 C 239.691406 975.296875 235.535156 973.203125 231.425781 971.007812 C 227.316406 968.8125 223.265625 966.515625 219.269531 964.121094 C 215.273438 961.726562 211.339844 959.234375 207.46875 956.648438 C 203.59375 954.058594 199.785156 951.378906 196.046875 948.601562 C 192.304688 945.828125 188.632812 942.964844 185.03125 940.007812 C 181.429688 937.054688 177.90625 934.011719 174.453125 930.882812 C 171.003906 927.753906 167.628906 924.542969 164.335938 921.25 C 161.042969 917.957031 157.832031 914.582031 154.703125 911.132812 C 151.574219 907.679688 148.53125 904.15625 145.578125 900.554688 C 142.621094 896.953125 139.757812 893.28125 136.984375 889.539062 C 134.207031 885.800781 131.527344 881.992188 128.9375 878.117188 C 126.351562 874.246094 123.859375 870.3125 121.464844 866.316406 C 119.070312 862.320312 116.773438 858.269531 114.578125 854.160156 C 112.382812 850.050781 110.289062 845.894531 108.296875 841.683594 C 106.304688 837.472656 104.417969 833.214844 102.636719 828.910156 C 100.851562 824.605469 99.175781 820.261719 97.609375 815.875 C 96.039062 811.488281 94.578125 807.070312 93.226562 802.609375 C 91.875 798.152344 90.632812 793.664062 89.5 789.148438 C 88.367188 784.628906 87.347656 780.085938 86.4375 775.515625 C 85.53125 770.945312 84.734375 766.359375 84.050781 761.75 C 83.367188 757.144531 82.796875 752.523438 82.339844 747.886719 C 81.882812 743.25 81.542969 738.605469 81.3125 733.953125 C 81.085938 729.300781 80.96875 724.644531 80.96875 719.988281 C 80.96875 715.328125 81.085938 710.675781 81.3125 706.023438 C 81.542969 701.367188 81.882812 696.726562 82.339844 692.089844 C 82.796875 687.453125 83.367188 682.832031 84.050781 678.222656 C 84.734375 673.617188 85.53125 669.027344 86.4375 664.460938 C 87.347656 659.890625 88.367188 655.347656 89.5 650.828125 C 90.632812 646.308594 91.875 641.820312 93.226562 637.363281 C 94.578125 632.90625 96.039062 628.484375 97.609375 624.097656 C 99.175781 619.714844 100.851562 615.367188 102.636719 611.066406 C 104.417969 606.761719 106.304688 602.503906 108.296875 598.292969 C 110.289062 594.082031 112.382812 589.921875 114.578125 585.816406 C 116.773438 581.707031 119.070312 577.65625 121.464844 573.660156 C 123.859375 569.664062 126.351562 565.730469 128.9375 561.855469 C 131.527344 557.984375 134.207031 554.175781 136.984375 550.433594 C 139.757812 546.691406 142.621094 543.023438 145.578125 539.421875 C 148.53125 535.820312 151.574219 532.292969 154.703125 528.84375 C 157.832031 525.390625 161.042969 522.019531 164.335938 518.726562 C 167.628906 515.429688 171.003906 512.21875 174.453125 509.09375 C 177.90625 505.964844 181.429688 502.921875 185.03125 499.96875 C 188.632812 497.011719 192.304688 494.148438 196.046875 491.371094 C 199.785156 488.597656 203.59375 485.914062 207.46875 483.328125 C 211.339844 480.738281 215.273438 478.25 219.269531 475.855469 C 223.265625 473.460938 227.316406 471.164062 231.425781 468.96875 C 235.535156 466.773438 239.691406 464.679688 243.902344 462.6875 C 248.113281 460.695312 252.371094 458.808594 256.675781 457.027344 C 260.980469 455.242188 265.324219 453.566406 269.710938 451.996094 C 274.097656 450.429688 278.515625 448.96875 282.976562 447.617188 C 287.433594 446.261719 291.921875 445.019531 296.4375 443.890625 C 300.957031 442.757812 305.5 441.738281 310.070312 440.828125 C 314.640625 439.917969 319.226562 439.125 323.835938 438.441406 C 328.441406 437.757812 333.0625 437.1875 337.699219 436.730469 C 342.335938 436.273438 346.980469 435.929688 351.632812 435.703125 C 356.285156 435.472656 360.941406 435.359375 365.597656 435.359375 C 370.257812 435.359375 374.910156 435.472656 379.5625 435.703125 C 384.21875 435.929688 388.859375 436.273438 393.496094 436.730469 C 398.132812 437.1875 402.753906 437.757812 407.363281 438.441406 C 411.96875 439.125 416.558594 439.917969 421.125 440.828125 C 425.695312 441.738281 430.238281 442.757812 434.757812 443.890625 C 439.277344 445.019531 443.765625 446.261719 448.222656 447.617188 C 452.679688 448.96875 457.101562 450.429688 461.488281 451.996094 C 465.871094 453.566406 470.21875 455.242188 474.519531 457.027344 C 478.824219 458.808594 483.082031 460.695312 487.292969 462.6875 C 491.503906 464.679688 495.664062 466.773438 499.769531 468.96875 C 503.878906 471.164062 507.929688 473.460938 511.925781 475.855469 C 515.921875 478.25 519.855469 480.738281 523.730469 483.328125 C 527.601562 485.914062 531.410156 488.597656 535.152344 491.371094 C 538.890625 494.148438 542.5625 497.011719 546.164062 499.96875 C 549.765625 502.921875 553.292969 505.964844 556.742188 509.09375 C 560.195312 512.21875 563.566406 515.429688 566.859375 518.726562 C 570.15625 522.019531 573.367188 525.390625 576.492188 528.84375 C 579.621094 532.292969 582.664062 535.820312 585.617188 539.421875 C 588.574219 543.023438 591.4375 546.691406 594.214844 550.433594 C 596.988281 554.175781 599.671875 557.984375 602.257812 561.855469 C 604.847656 565.730469 607.335938 569.664062 609.730469 573.660156 C 612.125 577.65625 614.421875 581.707031 616.617188 585.816406 C 618.8125 589.921875 620.90625 594.082031 622.898438 598.292969 C 624.890625 602.503906 626.777344 606.761719 628.558594 611.066406 C 630.34375 615.367188 632.019531 619.714844 633.589844 624.097656 C 635.15625 628.484375 636.617188 632.90625 637.96875 637.363281 C 639.324219 641.820312 640.566406 646.308594 641.695312 650.828125 C 642.828125 655.347656 643.847656 659.890625 644.757812 664.460938 C 645.667969 669.027344 646.460938 673.617188 647.144531 678.222656 C 647.828125 682.832031 648.398438 687.453125 648.855469 692.089844 C 649.3125 696.726562 649.65625 701.367188 649.882812 706.023438 C 650.113281 710.675781 650.226562 715.328125 650.226562 719.988281 Z M 650.226562 719.988281 " fill-opacity="1" fill-rule="nonzero"/><path stroke-linecap="butt" transform="matrix(0.748293, 0, 0, 0.748293, -38.203067, 315.280822)" fill="none" stroke-linejoin="miter" d="M 603.712469 375.318309 L 438.320424 540.699914 L 438.617976 540.992246 L 603.999581 706.36863 " stroke="#ffffff" stroke-width="41" stroke-opacity="1" stroke-miterlimit="10"/></g></g></g><g clip-path="url(#45f63c0cd6)"><g clip-path="url(#e47b01876c)"><g clip-path="url(#8cdad42e0c)"><path stroke-linecap="butt" transform="matrix(0.75, 0, 0, 0.75, 81.000011, 435.381854)" fill="none" stroke-linejoin="miter" d="M -0.000015 379.485686 C -0.000015 480.131528 39.979155 576.652369 111.145828 647.819042 C 182.317709 718.985715 278.838551 758.970094 379.484393 758.970094 C 480.130235 758.970094 576.651077 718.985715 647.81775 647.819042 C 718.989631 576.652369 758.968801 480.131528 758.968801 379.485686 C 758.968801 278.839844 718.989631 182.313794 647.81775 111.147121 C 576.651077 39.980448 480.130235 0.00127772 379.484393 0.00127772 C 278.838551 0.00127772 182.317709 39.980448 111.145828 111.147121 C 39.979155 182.313794 -0.000015 278.839844 -0.000015 379.485686 Z M -0.000015 379.485686 " stroke="#000000" stroke-width="26" stroke-opacity="1" stroke-miterlimit="4"/></g></g></g></svg>