<svg xmlns="http://www.w3.org/2000/svg" xmlns:xlink="http://www.w3.org/1999/xlink" width="1080" zoomAndPan="magnify" viewBox="0 0 810 1439.999935" height="1920" preserveAspectRatio="xMidYMid meet" version="1.0"><defs><clipPath id="8560e64676"><path d="M 103.6875 570.175781 L 678.9375 570.175781 L 678.9375 1145.425781 L 103.6875 1145.425781 Z M 103.6875 570.175781 " clip-rule="nonzero"/></clipPath><clipPath id="f15a6d940e"><path d="M 102.9375 857.679688 C 102.9375 934.128906 133.304688 1007.449219 187.363281 1061.507812 C 241.421875 1115.566406 314.738281 1145.933594 391.191406 1145.933594 C 467.640625 1145.933594 540.957031 1115.566406 595.015625 1061.507812 C 649.074219 1007.449219 679.445312 934.128906 679.445312 857.679688 C 679.445312 781.230469 649.074219 707.914062 595.015625 653.855469 C 540.957031 599.796875 467.640625 569.425781 391.191406 569.425781 C 314.738281 569.425781 241.421875 599.796875 187.363281 653.855469 C 133.304688 707.914062 102.9375 781.230469 102.9375 857.679688 Z M 102.9375 857.679688 " clip-rule="nonzero"/></clipPath><clipPath id="5e49a440ef"><path d="M 391.191406 570.328125 C 467.402344 570.328125 540.492188 600.601562 594.378906 654.492188 C 648.269531 708.378906 678.542969 781.46875 678.542969 857.679688 C 678.542969 933.890625 648.269531 1006.980469 594.378906 1060.871094 C 540.492188 1114.761719 467.402344 1145.035156 391.191406 1145.035156 C 314.980469 1145.035156 241.890625 1114.761719 188 1060.871094 C 134.109375 1006.980469 103.835938 933.890625 103.835938 857.679688 C 103.835938 781.46875 134.109375 708.378906 188 654.492188 C 241.890625 600.601562 314.980469 570.328125 391.191406 570.328125 Z M 391.191406 570.328125 " clip-rule="nonzero"/></clipPath><clipPath id="9985f027e9"><path d="M 230 697 L 552 697 L 552 1019 L 230 1019 Z M 230 697 " clip-rule="nonzero"/></clipPath><clipPath id="8183869fd4"><path d="M 102.9375 857.679688 C 102.9375 934.128906 133.304688 1007.449219 187.363281 1061.507812 C 241.421875 1115.566406 314.738281 1145.933594 391.191406 1145.933594 C 467.640625 1145.933594 540.957031 1115.566406 595.015625 1061.507812 C 649.074219 1007.449219 679.445312 934.128906 679.445312 857.679688 C 679.445312 781.230469 649.074219 707.914062 595.015625 653.855469 C 540.957031 599.796875 467.640625 569.425781 391.191406 569.425781 C 314.738281 569.425781 241.421875 599.796875 187.363281 653.855469 C 133.304688 707.914062 102.9375 781.230469 102.9375 857.679688 Z M 102.9375 857.679688 " clip-rule="nonzero"/></clipPath><clipPath id="87f5456fa2"><path d="M 391.191406 570.328125 C 467.402344 570.328125 540.492188 600.601562 594.378906 654.492188 C 648.269531 708.378906 678.542969 781.46875 678.542969 857.679688 C 678.542969 933.890625 648.269531 1006.980469 594.378906 1060.871094 C 540.492188 1114.761719 467.402344 1145.035156 391.191406 1145.035156 C 314.980469 1145.035156 241.890625 1114.761719 188 1060.871094 C 134.109375 1006.980469 103.835938 933.890625 103.835938 857.679688 C 103.835938 781.46875 134.109375 708.378906 188 654.492188 C 241.890625 600.601562 314.980469 570.328125 391.191406 570.328125 Z M 391.191406 570.328125 " clip-rule="nonzero"/></clipPath><clipPath id="74b56e239f"><path d="M 102.9375 569.425781 L 679.683594 569.425781 L 679.683594 1146 L 102.9375 1146 Z M 102.9375 569.425781 " clip-rule="nonzero"/></clipPath><clipPath id="821b4169d8"><path d="M 102.9375 857.679688 C 102.9375 934.128906 133.304688 1007.449219 187.363281 1061.507812 C 241.421875 1115.566406 314.738281 1145.933594 391.191406 1145.933594 C 467.640625 1145.933594 540.957031 1115.566406 595.015625 1061.507812 C 649.074219 1007.449219 679.445312 934.128906 679.445312 857.679688 C 679.445312 781.230469 649.074219 707.914062 595.015625 653.855469 C 540.957031 599.796875 467.640625 569.425781 391.191406 569.425781 C 314.738281 569.425781 241.421875 599.796875 187.363281 653.855469 C 133.304688 707.914062 102.9375 781.230469 102.9375 857.679688 Z M 102.9375 857.679688 " clip-rule="nonzero"/></clipPath><clipPath id="8d147aafc7"><path d="M 102.9375 857.679688 C 102.9375 934.128906 133.304688 1007.445312 187.363281 1061.503906 C 241.421875 1115.5625 314.738281 1145.929688 391.1875 1145.929688 C 467.636719 1145.929688 540.953125 1115.5625 595.011719 1061.503906 C 649.070312 1007.445312 679.441406 934.128906 679.441406 857.679688 C 679.441406 781.230469 649.070312 707.910156 595.011719 653.855469 C 540.953125 599.796875 467.636719 569.425781 391.1875 569.425781 C 314.738281 569.425781 241.421875 599.796875 187.363281 653.855469 C 133.304688 707.910156 102.9375 781.230469 102.9375 857.679688 Z M 102.9375 857.679688 " clip-rule="nonzero"/></clipPath></defs><g clip-path="url(#8560e64676)"><g clip-path="url(#f15a6d940e)"><g clip-path="url(#5e49a440ef)"><path fill="#00aeef" d="M 679.6875 857.800781 C 679.6875 862.523438 679.570312 867.238281 679.339844 871.953125 C 679.105469 876.667969 678.761719 881.371094 678.296875 886.066406 C 677.835938 890.765625 677.257812 895.449219 676.566406 900.117188 C 675.871094 904.785156 675.066406 909.433594 674.144531 914.0625 C 673.222656 918.691406 672.191406 923.292969 671.042969 927.871094 C 669.898438 932.449219 668.640625 936.996094 667.269531 941.511719 C 665.898438 946.03125 664.417969 950.507812 662.828125 954.953125 C 661.238281 959.398438 659.539062 963.796875 657.734375 968.160156 C 655.929688 972.519531 654.015625 976.832031 652 981.097656 C 649.980469 985.363281 647.859375 989.578125 645.636719 993.742188 C 643.410156 997.902344 641.085938 1002.007812 638.660156 1006.058594 C 636.230469 1010.105469 633.707031 1014.089844 631.085938 1018.015625 C 628.464844 1021.9375 625.746094 1025.796875 622.9375 1029.585938 C 620.125 1033.378906 617.222656 1037.097656 614.226562 1040.746094 C 611.234375 1044.394531 608.152344 1047.964844 604.984375 1051.464844 C 601.8125 1054.960938 598.558594 1058.378906 595.222656 1061.714844 C 591.886719 1065.050781 588.46875 1068.304688 584.972656 1071.472656 C 581.476562 1074.644531 577.902344 1077.726562 574.253906 1080.71875 C 570.605469 1083.714844 566.886719 1086.617188 563.097656 1089.425781 C 559.304688 1092.238281 555.449219 1094.957031 551.523438 1097.578125 C 547.597656 1100.199219 543.613281 1102.722656 539.566406 1105.148438 C 535.515625 1107.574219 531.414062 1109.902344 527.25 1112.125 C 523.089844 1114.351562 518.875 1116.472656 514.605469 1118.492188 C 510.339844 1120.507812 506.027344 1122.421875 501.667969 1124.226562 C 497.308594 1126.03125 492.90625 1127.730469 488.460938 1129.320312 C 484.019531 1130.910156 479.539062 1132.390625 475.023438 1133.761719 C 470.503906 1135.128906 465.957031 1136.386719 461.378906 1137.535156 C 456.800781 1138.683594 452.199219 1139.714844 447.570312 1140.636719 C 442.941406 1141.558594 438.292969 1142.363281 433.625 1143.054688 C 428.957031 1143.75 424.273438 1144.328125 419.578125 1144.789062 C 414.878906 1145.25 410.175781 1145.597656 405.460938 1145.828125 C 400.746094 1146.0625 396.03125 1146.175781 391.3125 1146.175781 C 386.589844 1146.175781 381.875 1146.0625 377.160156 1145.828125 C 372.449219 1145.597656 367.742188 1145.25 363.046875 1144.789062 C 358.347656 1144.328125 353.667969 1143.75 348.996094 1143.054688 C 344.328125 1142.363281 339.679688 1141.558594 335.050781 1140.636719 C 330.421875 1139.714844 325.820312 1138.683594 321.242188 1137.535156 C 316.664062 1136.386719 312.117188 1135.128906 307.601562 1133.761719 C 303.085938 1132.390625 298.605469 1130.910156 294.160156 1129.320312 C 289.71875 1127.730469 285.316406 1126.03125 280.953125 1124.226562 C 276.59375 1122.421875 272.28125 1120.507812 268.015625 1118.492188 C 263.75 1116.472656 259.535156 1114.351562 255.371094 1112.125 C 251.210938 1109.902344 247.105469 1107.574219 243.058594 1105.148438 C 239.007812 1102.722656 235.023438 1100.199219 231.097656 1097.578125 C 227.175781 1094.957031 223.316406 1092.238281 219.527344 1089.425781 C 215.734375 1086.617188 212.015625 1083.714844 208.367188 1080.71875 C 204.71875 1077.726562 201.148438 1074.644531 197.648438 1071.472656 C 194.152344 1068.304688 190.738281 1065.050781 187.398438 1061.714844 C 184.0625 1058.378906 180.808594 1054.960938 177.640625 1051.464844 C 174.46875 1047.964844 171.386719 1044.394531 168.394531 1040.746094 C 165.398438 1037.097656 162.496094 1033.378906 159.6875 1029.585938 C 156.875 1025.796875 154.15625 1021.9375 151.535156 1018.015625 C 148.914062 1014.089844 146.390625 1010.105469 143.964844 1006.058594 C 141.539062 1002.007812 139.210938 997.902344 136.988281 993.742188 C 134.761719 989.578125 132.640625 985.363281 130.625 981.097656 C 128.605469 976.832031 126.695312 972.519531 124.886719 968.160156 C 123.082031 963.796875 121.382812 959.398438 119.792969 954.953125 C 118.203125 950.507812 116.722656 946.03125 115.355469 941.511719 C 113.984375 936.996094 112.726562 932.449219 111.578125 927.871094 C 110.433594 923.292969 109.398438 918.691406 108.476562 914.0625 C 107.554688 909.433594 106.75 904.785156 106.058594 900.117188 C 105.363281 895.449219 104.789062 890.765625 104.324219 886.066406 C 103.863281 881.371094 103.515625 876.667969 103.285156 871.953125 C 103.050781 867.238281 102.9375 862.523438 102.9375 857.800781 C 102.9375 853.082031 103.050781 848.367188 103.285156 843.652344 C 103.515625 838.9375 103.863281 834.234375 104.324219 829.535156 C 104.789062 824.839844 105.363281 820.15625 106.058594 815.488281 C 106.75 810.820312 107.554688 806.171875 108.476562 801.542969 C 109.398438 796.914062 110.433594 792.3125 111.578125 787.734375 C 112.726562 783.15625 113.984375 778.609375 115.355469 774.089844 C 116.722656 769.574219 118.203125 765.09375 119.792969 760.652344 C 121.382812 756.207031 123.082031 751.804688 124.886719 747.445312 C 126.695312 743.085938 128.605469 738.773438 130.625 734.507812 C 132.640625 730.238281 134.761719 726.027344 136.988281 721.863281 C 139.210938 717.699219 141.539062 713.597656 143.964844 709.546875 C 146.390625 705.5 148.914062 701.515625 151.535156 697.589844 C 154.15625 693.664062 156.875 689.808594 159.6875 686.019531 C 162.496094 682.226562 165.398438 678.507812 168.394531 674.859375 C 171.386719 671.210938 174.46875 667.636719 177.640625 664.140625 C 180.808594 660.644531 184.0625 657.226562 187.398438 653.890625 C 190.738281 650.554688 194.152344 647.300781 197.648438 644.128906 C 201.148438 640.960938 204.71875 637.878906 208.367188 634.886719 C 212.015625 631.890625 215.734375 628.988281 219.527344 626.175781 C 223.316406 623.367188 227.175781 620.648438 231.097656 618.027344 C 235.023438 615.40625 239.007812 612.882812 243.058594 610.453125 C 247.105469 608.027344 251.210938 605.703125 255.371094 603.476562 C 259.535156 601.253906 263.75 599.132812 268.015625 597.113281 C 272.28125 595.097656 276.59375 593.183594 280.953125 591.378906 C 285.316406 589.574219 289.71875 587.875 294.160156 586.285156 C 298.605469 584.695312 303.085938 583.214844 307.601562 581.84375 C 312.117188 580.476562 316.664062 579.214844 321.242188 578.070312 C 325.820312 576.921875 330.421875 575.890625 335.050781 574.96875 C 339.679688 574.046875 344.328125 573.242188 348.996094 572.546875 C 353.667969 571.855469 358.347656 571.277344 363.046875 570.816406 C 367.742188 570.351562 372.449219 570.007812 377.160156 569.773438 C 381.875 569.542969 386.589844 569.425781 391.3125 569.425781 C 396.03125 569.425781 400.746094 569.542969 405.460938 569.773438 C 410.175781 570.007812 414.878906 570.351562 419.578125 570.816406 C 424.273438 571.277344 428.957031 571.855469 433.625 572.546875 C 438.292969 573.242188 442.941406 574.046875 447.570312 574.96875 C 452.199219 575.890625 456.800781 576.921875 461.378906 578.070312 C 465.957031 579.214844 470.503906 580.476562 475.023438 581.84375 C 479.539062 583.214844 484.019531 584.695312 488.460938 586.285156 C 492.90625 587.875 497.308594 589.574219 501.667969 591.378906 C 506.027344 593.183594 510.339844 595.097656 514.605469 597.113281 C 518.875 599.132812 523.089844 601.253906 527.25 603.476562 C 531.414062 605.703125 535.515625 608.027344 539.566406 610.453125 C 543.613281 612.882812 547.597656 615.40625 551.523438 618.027344 C 555.449219 620.648438 559.304688 623.367188 563.097656 626.175781 C 566.886719 628.988281 570.605469 631.890625 574.253906 634.886719 C 577.902344 637.878906 581.476562 640.960938 584.972656 644.128906 C 588.46875 647.300781 591.886719 650.554688 595.222656 653.890625 C 598.558594 657.226562 601.8125 660.644531 604.984375 664.140625 C 608.152344 667.636719 611.234375 671.210938 614.226562 674.859375 C 617.222656 678.507812 620.125 682.226562 622.9375 686.019531 C 625.746094 689.808594 628.464844 693.664062 631.085938 697.589844 C 633.707031 701.515625 636.230469 705.5 638.660156 709.546875 C 641.085938 713.597656 643.410156 717.699219 645.636719 721.863281 C 647.859375 726.027344 649.980469 730.238281 652 734.507812 C 654.015625 738.773438 655.929688 743.085938 657.734375 747.445312 C 659.539062 751.804688 661.238281 756.207031 662.828125 760.652344 C 664.417969 765.09375 665.898438 769.574219 667.269531 774.089844 C 668.640625 778.609375 669.898438 783.15625 671.042969 787.734375 C 672.191406 792.3125 673.222656 796.914062 674.144531 801.542969 C 675.066406 806.171875 675.871094 810.820312 676.566406 815.488281 C 677.257812 820.15625 677.835938 824.839844 678.296875 829.535156 C 678.761719 834.234375 679.105469 838.9375 679.339844 843.652344 C 679.570312 848.367188 679.6875 853.082031 679.6875 857.800781 Z M 679.6875 857.800781 " fill-opacity="1" fill-rule="nonzero"/></g></g></g><g clip-path="url(#9985f027e9)"><g clip-path="url(#8183869fd4)"><g clip-path="url(#87f5456fa2)"><path fill="#ffffff" d="M 528.347656 834.425781 L 414.6875 834.425781 L 414.6875 720.765625 C 414.6875 720 414.652344 719.238281 414.578125 718.476562 C 414.5 717.714844 414.390625 716.957031 414.238281 716.207031 C 414.089844 715.453125 413.90625 714.714844 413.683594 713.980469 C 413.460938 713.246094 413.203125 712.527344 412.910156 711.820312 C 412.617188 711.113281 412.289062 710.421875 411.929688 709.746094 C 411.566406 709.070312 411.175781 708.414062 410.75 707.777344 C 410.324219 707.140625 409.867188 706.527344 409.382812 705.9375 C 408.898438 705.34375 408.382812 704.777344 407.839844 704.234375 C 407.300781 703.695312 406.734375 703.179688 406.140625 702.695312 C 405.550781 702.210938 404.9375 701.753906 404.300781 701.328125 C 403.664062 700.902344 403.007812 700.511719 402.332031 700.148438 C 401.65625 699.789062 400.964844 699.460938 400.257812 699.167969 C 399.550781 698.875 398.828125 698.617188 398.097656 698.394531 C 397.363281 698.171875 396.621094 697.988281 395.871094 697.839844 C 395.121094 697.6875 394.363281 697.578125 393.601562 697.5 C 392.839844 697.425781 392.078125 697.390625 391.3125 697.390625 C 390.546875 697.390625 389.78125 697.425781 389.019531 697.5 C 388.257812 697.578125 387.5 697.6875 386.75 697.839844 C 386 697.988281 385.257812 698.171875 384.523438 698.394531 C 383.792969 698.617188 383.074219 698.875 382.363281 699.167969 C 381.65625 699.460938 380.964844 699.789062 380.292969 700.148438 C 379.617188 700.511719 378.960938 700.902344 378.324219 701.328125 C 377.6875 701.753906 377.074219 702.210938 376.480469 702.695312 C 375.890625 703.179688 375.320312 703.695312 374.78125 704.234375 C 374.238281 704.777344 373.726562 705.34375 373.238281 705.9375 C 372.753906 706.527344 372.296875 707.140625 371.875 707.777344 C 371.449219 708.414062 371.054688 709.070312 370.695312 709.746094 C 370.332031 710.421875 370.007812 711.113281 369.714844 711.820312 C 369.421875 712.527344 369.164062 713.246094 368.941406 713.980469 C 368.71875 714.714844 368.53125 715.453125 368.382812 716.207031 C 368.234375 716.957031 368.121094 717.714844 368.046875 718.476562 C 367.972656 719.238281 367.933594 720 367.933594 720.765625 L 367.933594 834.425781 L 254.277344 834.425781 C 253.511719 834.425781 252.746094 834.464844 251.984375 834.539062 C 251.222656 834.613281 250.46875 834.726562 249.71875 834.878906 C 248.96875 835.027344 248.226562 835.214844 247.496094 835.4375 C 246.761719 835.660156 246.042969 835.917969 245.335938 836.210938 C 244.628906 836.503906 243.9375 836.832031 243.265625 837.191406 C 242.589844 837.554688 241.933594 837.945312 241.296875 838.371094 C 240.664062 838.796875 240.050781 839.253906 239.457031 839.738281 C 238.867188 840.226562 238.300781 840.738281 237.757812 841.28125 C 237.21875 841.820312 236.707031 842.386719 236.222656 842.980469 C 235.734375 843.570312 235.28125 844.183594 234.855469 844.820312 C 234.429688 845.457031 234.039062 846.113281 233.675781 846.789062 C 233.316406 847.464844 232.992188 848.15625 232.699219 848.863281 C 232.40625 849.570312 232.148438 850.289062 231.925781 851.019531 C 231.703125 851.753906 231.519531 852.492188 231.371094 853.246094 C 231.21875 853.996094 231.109375 854.75 231.03125 855.511719 C 230.957031 856.273438 230.921875 857.039062 230.921875 857.800781 C 230.921875 858.566406 230.957031 859.332031 231.03125 860.09375 C 231.109375 860.855469 231.21875 861.609375 231.371094 862.359375 C 231.519531 863.109375 231.703125 863.851562 231.925781 864.585938 C 232.148438 865.316406 232.40625 866.035156 232.699219 866.742188 C 232.992188 867.449219 233.316406 868.140625 233.675781 868.816406 C 234.039062 869.492188 234.429688 870.148438 234.855469 870.785156 C 235.28125 871.417969 235.734375 872.035156 236.222656 872.625 C 236.707031 873.21875 237.21875 873.785156 237.757812 874.324219 C 238.300781 874.867188 238.867188 875.378906 239.457031 875.867188 C 240.050781 876.351562 240.664062 876.808594 241.296875 877.230469 C 241.933594 877.65625 242.589844 878.050781 243.265625 878.414062 C 243.9375 878.773438 244.628906 879.101562 245.335938 879.394531 C 246.042969 879.6875 246.761719 879.945312 247.496094 880.167969 C 248.226562 880.390625 248.96875 880.578125 249.71875 880.726562 C 250.46875 880.875 251.222656 880.988281 251.984375 881.066406 C 252.746094 881.140625 253.511719 881.179688 254.277344 881.179688 L 367.933594 881.179688 L 367.933594 994.839844 C 367.933594 995.605469 367.972656 996.367188 368.046875 997.128906 C 368.121094 997.890625 368.234375 998.648438 368.382812 999.398438 C 368.53125 1000.148438 368.71875 1000.890625 368.941406 1001.625 C 369.164062 1002.355469 369.421875 1003.078125 369.714844 1003.785156 C 370.007812 1004.492188 370.332031 1005.183594 370.695312 1005.859375 C 371.054688 1006.535156 371.449219 1007.191406 371.875 1007.824219 C 372.296875 1008.460938 372.753906 1009.078125 373.238281 1009.667969 C 373.726562 1010.261719 374.238281 1010.828125 374.78125 1011.367188 C 375.320312 1011.910156 375.890625 1012.421875 376.480469 1012.910156 C 377.074219 1013.394531 377.6875 1013.851562 378.324219 1014.277344 C 378.960938 1014.703125 379.617188 1015.09375 380.292969 1015.457031 C 380.964844 1015.816406 381.65625 1016.144531 382.363281 1016.4375 C 383.074219 1016.730469 383.792969 1016.988281 384.523438 1017.210938 C 385.257812 1017.429688 386 1017.617188 386.75 1017.765625 C 387.5 1017.914062 388.257812 1018.027344 389.019531 1018.101562 C 389.78125 1018.179688 390.546875 1018.214844 391.3125 1018.214844 C 392.078125 1018.214844 392.839844 1018.179688 393.601562 1018.101562 C 394.363281 1018.027344 395.121094 1017.914062 395.871094 1017.765625 C 396.621094 1017.617188 397.363281 1017.429688 398.097656 1017.210938 C 398.828125 1016.988281 399.550781 1016.730469 400.257812 1016.4375 C 400.964844 1016.144531 401.65625 1015.816406 402.332031 1015.457031 C 403.007812 1015.09375 403.664062 1014.703125 404.300781 1014.277344 C 404.9375 1013.851562 405.550781 1013.394531 406.140625 1012.910156 C 406.734375 1012.421875 407.300781 1011.910156 407.839844 1011.367188 C 408.382812 1010.828125 408.898438 1010.261719 409.382812 1009.667969 C 409.867188 1009.078125 410.324219 1008.460938 410.75 1007.824219 C 411.175781 1007.191406 411.566406 1006.535156 411.929688 1005.859375 C 412.289062 1005.183594 412.617188 1004.492188 412.910156 1003.785156 C 413.203125 1003.078125 413.460938 1002.355469 413.683594 1001.625 C 413.90625 1000.890625 414.089844 1000.148438 414.238281 999.398438 C 414.390625 998.648438 414.5 997.890625 414.578125 997.128906 C 414.652344 996.367188 414.6875 995.605469 414.6875 994.839844 L 414.6875 881.179688 L 528.347656 881.179688 C 529.113281 881.179688 529.875 881.140625 530.636719 881.066406 C 531.398438 880.988281 532.152344 880.875 532.90625 880.726562 C 533.65625 880.578125 534.394531 880.390625 535.128906 880.167969 C 535.859375 879.945312 536.578125 879.6875 537.285156 879.394531 C 537.992188 879.101562 538.683594 878.773438 539.359375 878.414062 C 540.03125 878.050781 540.6875 877.65625 541.324219 877.230469 C 541.960938 876.808594 542.574219 876.351562 543.164062 875.867188 C 543.757812 875.378906 544.320312 874.867188 544.863281 874.324219 C 545.402344 873.785156 545.917969 873.21875 546.402344 872.625 C 546.886719 872.035156 547.34375 871.417969 547.765625 870.785156 C 548.191406 870.148438 548.585938 869.492188 548.945312 868.816406 C 549.304688 868.140625 549.632812 867.449219 549.925781 866.742188 C 550.21875 866.035156 550.472656 865.316406 550.695312 864.585938 C 550.917969 863.851562 551.105469 863.109375 551.253906 862.359375 C 551.402344 861.609375 551.515625 860.855469 551.589844 860.09375 C 551.664062 859.332031 551.703125 858.566406 551.703125 857.800781 C 551.703125 857.039062 551.664062 856.273438 551.589844 855.511719 C 551.515625 854.75 551.402344 853.996094 551.253906 853.246094 C 551.105469 852.492188 550.917969 851.753906 550.695312 851.019531 C 550.472656 850.289062 550.21875 849.570312 549.925781 848.863281 C 549.632812 848.15625 549.304688 847.464844 548.945312 846.789062 C 548.585938 846.113281 548.191406 845.457031 547.765625 844.820312 C 547.34375 844.183594 546.886719 843.570312 546.402344 842.980469 C 545.917969 842.386719 545.402344 841.820312 544.863281 841.28125 C 544.320312 840.738281 543.757812 840.226562 543.164062 839.738281 C 542.574219 839.253906 541.960938 838.796875 541.324219 838.371094 C 540.6875 837.945312 540.03125 837.554688 539.359375 837.191406 C 538.683594 836.832031 537.992188 836.503906 537.285156 836.210938 C 536.578125 835.917969 535.859375 835.660156 535.128906 835.4375 C 534.394531 835.214844 533.65625 835.027344 532.90625 834.878906 C 532.152344 834.726562 531.398438 834.613281 530.636719 834.539062 C 529.875 834.464844 529.113281 834.425781 528.347656 834.425781 Z M 528.347656 834.425781 " fill-opacity="1" fill-rule="nonzero"/></g></g></g><g clip-path="url(#74b56e239f)"><g clip-path="url(#821b4169d8)"><g clip-path="url(#8d147aafc7)"><path stroke-linecap="butt" transform="matrix(0.75, 0, 0, 0.75, 102.935875, 569.427123)" fill="none" stroke-linejoin="miter" d="M 0.00216674 384.336787 C 0.00216674 486.269087 40.491754 584.024304 112.569885 656.102435 C 184.648016 728.180566 282.403233 768.670153 384.335533 768.670153 C 486.267834 768.670153 584.023051 728.180566 656.101182 656.102435 C 728.179313 584.024304 768.674108 486.269087 768.674108 384.336787 C 768.674108 282.404486 728.179313 184.644061 656.101182 112.571138 C 584.023051 40.493007 486.267834 -0.00178843 384.335533 -0.00178843 C 282.403233 -0.00178843 184.648016 40.493007 112.569885 112.571138 C 40.491754 184.644061 0.00216674 282.404486 0.00216674 384.336787 Z M 0.00216674 384.336787 " stroke="#000000" stroke-width="24" stroke-opacity="1" stroke-miterlimit="4"/></g></g></g></svg>