<svg xmlns="http://www.w3.org/2000/svg" xmlns:xlink="http://www.w3.org/1999/xlink" width="1080" zoomAndPan="magnify" viewBox="0 0 810 1439.999935" height="1920" preserveAspectRatio="xMidYMid meet" version="1.0"><defs><clipPath id="13fa7a9da1"><path d="M 131 404.324219 L 679 404.324219 L 679 952.574219 L 131 952.574219 Z M 131 404.324219 " clip-rule="nonzero"/></clipPath><clipPath id="11ada6a223"><path d="M 679.851562 678.472656 C 679.851562 526.675781 556.792969 403.621094 404.996094 403.621094 C 253.199219 403.621094 130.144531 526.675781 130.144531 678.472656 C 130.144531 830.269531 253.199219 953.324219 404.996094 953.324219 C 556.792969 953.324219 679.851562 830.269531 679.851562 678.472656 Z M 679.851562 678.472656 " clip-rule="nonzero"/></clipPath><clipPath id="d27e1e0bf7"><path d="M 404.996094 952.425781 C 253.699219 952.425781 131.046875 829.773438 131.046875 678.472656 C 131.046875 527.171875 253.699219 404.519531 404.996094 404.519531 C 556.296875 404.519531 678.949219 527.171875 678.949219 678.472656 C 678.949219 829.773438 556.296875 952.425781 404.996094 952.425781 Z M 404.996094 952.425781 " clip-rule="nonzero"/></clipPath><clipPath id="800187de9f"><path d="M 130.101562 403.578125 L 679.851562 403.578125 L 679.851562 953.324219 L 130.101562 953.324219 Z M 130.101562 403.578125 " clip-rule="nonzero"/></clipPath><clipPath id="d2d89d2031"><path d="M 679.851562 678.472656 C 679.851562 526.675781 556.792969 403.621094 404.996094 403.621094 C 253.199219 403.621094 130.144531 526.675781 130.144531 678.472656 C 130.144531 830.269531 253.199219 953.324219 404.996094 953.324219 C 556.792969 953.324219 679.851562 830.269531 679.851562 678.472656 Z M 679.851562 678.472656 " clip-rule="nonzero"/></clipPath><clipPath id="0934f31f1b"><path d="M 679.851562 678.472656 C 679.851562 526.679688 556.796875 403.621094 405 403.621094 C 253.203125 403.621094 130.148438 526.679688 130.148438 678.472656 C 130.148438 830.269531 253.203125 953.324219 405 953.324219 C 556.796875 953.324219 679.851562 830.269531 679.851562 678.472656 Z M 679.851562 678.472656 " clip-rule="nonzero"/></clipPath></defs><g clip-path="url(#13fa7a9da1)"><g clip-path="url(#11ada6a223)"><g clip-path="url(#d27e1e0bf7)"><path fill="#00aeef" d="M 130.148438 678.480469 C 130.148438 673.984375 130.257812 669.488281 130.476562 664.996094 C 130.699219 660.5 131.03125 656.015625 131.472656 651.539062 C 131.910156 647.0625 132.460938 642.601562 133.121094 638.148438 C 133.78125 633.699219 134.550781 629.269531 135.429688 624.859375 C 136.304688 620.445312 137.292969 616.058594 138.382812 611.695312 C 139.476562 607.332031 140.675781 602.996094 141.984375 598.691406 C 143.289062 594.386719 144.699219 590.117188 146.214844 585.882812 C 147.730469 581.644531 149.347656 577.449219 151.070312 573.292969 C 152.792969 569.136719 154.613281 565.027344 156.539062 560.960938 C 158.460938 556.894531 160.484375 552.878906 162.601562 548.910156 C 164.722656 544.941406 166.941406 541.03125 169.253906 537.171875 C 171.566406 533.3125 173.972656 529.515625 176.46875 525.773438 C 178.96875 522.035156 181.558594 518.355469 184.238281 514.742188 C 186.917969 511.128906 189.683594 507.585938 192.539062 504.109375 C 195.394531 500.628906 198.332031 497.226562 201.351562 493.890625 C 204.371094 490.558594 207.472656 487.300781 210.652344 484.121094 C 213.835938 480.941406 217.089844 477.839844 220.425781 474.820312 C 223.757812 471.796875 227.164062 468.859375 230.640625 466.007812 C 234.117188 463.152344 237.664062 460.386719 241.277344 457.707031 C 244.890625 455.027344 248.566406 452.4375 252.304688 449.9375 C 256.046875 447.441406 259.84375 445.035156 263.703125 442.722656 C 267.5625 440.410156 271.476562 438.191406 275.441406 436.070312 C 279.410156 433.949219 283.425781 431.929688 287.492188 430.003906 C 291.558594 428.082031 295.671875 426.261719 299.828125 424.539062 C 303.984375 422.816406 308.179688 421.199219 312.414062 419.683594 C 316.648438 418.167969 320.917969 416.757812 325.222656 415.449219 C 329.527344 414.144531 333.863281 412.945312 338.226562 411.851562 C 342.589844 410.757812 346.976562 409.773438 351.390625 408.898438 C 355.800781 408.019531 360.234375 407.25 364.683594 406.589844 C 369.132812 405.929688 373.59375 405.378906 378.070312 404.9375 C 382.546875 404.496094 387.035156 404.167969 391.527344 403.945312 C 396.019531 403.726562 400.515625 403.617188 405.011719 403.617188 C 409.511719 403.617188 414.007812 403.726562 418.5 403.945312 C 422.992188 404.167969 427.476562 404.496094 431.953125 404.9375 C 436.429688 405.378906 440.894531 405.929688 445.34375 406.589844 C 449.792969 407.25 454.226562 408.019531 458.636719 408.898438 C 463.050781 409.773438 467.4375 410.757812 471.800781 411.851562 C 476.164062 412.945312 480.496094 414.144531 484.800781 415.449219 C 489.105469 416.757812 493.378906 418.167969 497.613281 419.683594 C 501.847656 421.199219 506.042969 422.816406 510.199219 424.539062 C 514.355469 426.257812 518.46875 428.082031 522.535156 430.003906 C 526.601562 431.929688 530.617188 433.949219 534.585938 436.070312 C 538.550781 438.191406 542.464844 440.410156 546.324219 442.722656 C 550.179688 445.035156 553.980469 447.4375 557.722656 449.9375 C 561.460938 452.4375 565.136719 455.027344 568.75 457.707031 C 572.363281 460.386719 575.910156 463.152344 579.386719 466.007812 C 582.863281 468.859375 586.269531 471.796875 589.601562 474.820312 C 592.933594 477.839844 596.191406 480.941406 599.371094 484.121094 C 602.554688 487.300781 605.65625 490.558594 608.675781 493.890625 C 611.695312 497.226562 614.632812 500.628906 617.488281 504.109375 C 620.339844 507.585938 623.109375 511.128906 625.789062 514.742188 C 628.46875 518.355469 631.058594 522.035156 633.554688 525.773438 C 636.054688 529.515625 638.460938 533.3125 640.773438 537.171875 C 643.085938 541.03125 645.304688 544.941406 647.421875 548.910156 C 649.542969 552.878906 651.566406 556.894531 653.488281 560.960938 C 655.414062 565.027344 657.234375 569.136719 658.957031 573.292969 C 660.679688 577.449219 662.296875 581.644531 663.8125 585.882812 C 665.328125 590.117188 666.738281 594.386719 668.042969 598.691406 C 669.347656 602.996094 670.550781 607.332031 671.640625 611.695312 C 672.734375 616.058594 673.71875 620.445312 674.597656 624.859375 C 675.476562 629.269531 676.246094 633.699219 676.902344 638.148438 C 677.5625 642.601562 678.113281 647.0625 678.554688 651.539062 C 678.996094 656.015625 679.328125 660.5 679.546875 664.996094 C 679.769531 669.488281 679.878906 673.984375 679.878906 678.480469 C 679.878906 682.980469 679.769531 687.476562 679.546875 691.96875 C 679.328125 696.460938 678.996094 700.945312 678.554688 705.421875 C 678.113281 709.898438 677.5625 714.363281 676.902344 718.8125 C 676.246094 723.261719 675.476562 727.691406 674.597656 732.105469 C 673.71875 736.515625 672.734375 740.90625 671.640625 745.269531 C 670.550781 749.632812 669.347656 753.964844 668.042969 758.269531 C 666.738281 762.574219 665.328125 766.84375 663.8125 771.082031 C 662.296875 775.316406 660.679688 779.511719 658.957031 783.667969 C 657.234375 787.824219 655.414062 791.933594 653.488281 796 C 651.566406 800.066406 649.542969 804.085938 647.421875 808.050781 C 645.304688 812.019531 643.085938 815.933594 640.773438 819.789062 C 638.460938 823.648438 636.054688 827.449219 633.554688 831.1875 C 631.058594 834.929688 628.46875 838.605469 625.789062 842.21875 C 623.109375 845.832031 620.339844 849.378906 617.488281 852.855469 C 614.632812 856.332031 611.695312 859.738281 608.675781 863.070312 C 605.65625 866.402344 602.554688 869.660156 599.371094 872.839844 C 596.191406 876.023438 592.933594 879.121094 589.601562 882.144531 C 586.269531 885.164062 582.863281 888.101562 579.386719 890.957031 C 575.910156 893.808594 572.363281 896.574219 568.75 899.253906 C 565.136719 901.933594 561.460938 904.523438 557.71875 907.023438 C 553.980469 909.523438 550.179688 911.929688 546.324219 914.242188 C 542.464844 916.554688 538.550781 918.769531 534.585938 920.890625 C 530.617188 923.011719 526.601562 925.035156 522.535156 926.957031 C 518.46875 928.878906 514.355469 930.703125 510.199219 932.425781 C 506.042969 934.144531 501.847656 935.765625 497.613281 937.28125 C 493.378906 938.796875 489.105469 940.207031 484.800781 941.511719 C 480.496094 942.816406 476.164062 944.015625 471.800781 945.109375 C 467.4375 946.203125 463.050781 947.1875 458.636719 948.066406 C 454.226562 948.941406 449.792969 949.710938 445.34375 950.371094 C 440.894531 951.03125 436.429688 951.582031 431.953125 952.023438 C 427.476562 952.464844 422.992188 952.796875 418.5 953.015625 C 414.007812 953.238281 409.511719 953.347656 405.011719 953.347656 C 400.515625 953.347656 396.019531 953.238281 391.527344 953.015625 C 387.035156 952.796875 382.546875 952.464844 378.070312 952.023438 C 373.59375 951.582031 369.132812 951.03125 364.683594 950.371094 C 360.234375 949.710938 355.800781 948.941406 351.390625 948.066406 C 346.976562 947.1875 342.589844 946.203125 338.226562 945.109375 C 333.863281 944.015625 329.527344 942.816406 325.222656 941.511719 C 320.917969 940.207031 316.648438 938.796875 312.414062 937.28125 C 308.179688 935.765625 303.984375 934.144531 299.828125 932.425781 C 295.671875 930.703125 291.558594 928.878906 287.492188 926.957031 C 283.425781 925.035156 279.410156 923.011719 275.441406 920.890625 C 271.476562 918.769531 267.5625 916.554688 263.703125 914.242188 C 259.84375 911.929688 256.046875 909.523438 252.304688 907.023438 C 248.566406 904.523438 244.890625 901.933594 241.277344 899.253906 C 237.664062 896.574219 234.117188 893.808594 230.640625 890.957031 C 227.164062 888.101562 223.757812 885.164062 220.425781 882.144531 C 217.089844 879.121094 213.835938 876.023438 210.652344 872.839844 C 207.472656 869.660156 204.371094 866.402344 201.351562 863.070312 C 198.332031 859.738281 195.394531 856.332031 192.539062 852.855469 C 189.683594 849.378906 186.917969 845.832031 184.238281 842.21875 C 181.558594 838.605469 178.96875 834.929688 176.46875 831.1875 C 173.972656 827.449219 171.566406 823.648438 169.253906 819.789062 C 166.941406 815.933594 164.722656 812.019531 162.601562 808.050781 C 160.484375 804.085938 158.460938 800.066406 156.539062 796 C 154.613281 791.933594 152.792969 787.824219 151.070312 783.667969 C 149.347656 779.511719 147.730469 775.316406 146.214844 771.082031 C 144.699219 766.84375 143.289062 762.574219 141.984375 758.269531 C 140.675781 753.964844 139.476562 749.632812 138.386719 745.269531 C 137.292969 740.90625 136.304688 736.515625 135.429688 732.105469 C 134.550781 727.691406 133.78125 723.261719 133.121094 718.8125 C 132.460938 714.363281 131.910156 709.898438 131.472656 705.421875 C 131.03125 700.945312 130.699219 696.460938 130.476562 691.96875 C 130.257812 687.476562 130.148438 682.980469 130.148438 678.480469 Z M 130.148438 678.480469 " fill-opacity="1" fill-rule="nonzero"/><path stroke-linecap="butt" transform="matrix(-0.722628, 0, 0, -0.722628, 794.965029, 1069.307359)" fill="none" stroke-linejoin="miter" d="M 603.710376 375.321092 L 438.320118 540.700539 L 438.617427 540.992442 L 604.002279 706.371889 " stroke="#ffffff" stroke-width="41" stroke-opacity="1" stroke-miterlimit="10"/></g></g></g><g clip-path="url(#800187de9f)"><g clip-path="url(#d2d89d2031)"><g clip-path="url(#0934f31f1b)"><path stroke-linecap="butt" transform="matrix(-0.75, 0, 0, -0.75, 679.850407, 953.325593)" fill="none" stroke-linejoin="miter" d="M -0.00154031 366.470591 C -0.00154031 568.866429 164.07138 732.939349 366.467218 732.939349 C 568.863056 732.939349 732.935976 568.866429 732.935976 366.470591 C 732.935976 164.074753 568.863056 0.00183266 366.467218 0.00183266 C 164.07138 0.00183266 -0.00154031 164.074753 -0.00154031 366.470591 Z M -0.00154031 366.470591 " stroke="#000000" stroke-width="26" stroke-opacity="1" stroke-miterlimit="4"/></g></g></g></svg>